<svg width="696" height="178" viewBox="0 0 696 178" fill="none" xmlns="http://www.w3.org/2000/svg">
<path d="M506.56 78.91L518.79 98.56L510.6 98.52L500.44 82.08L500.23 98.36L493.25 98.51L493.1 47.49C495.54 46.95 497.43 47.11 500.34 47.51L500.2 77.37L510.1 65.13C511.45 63.46 514.65 64.79 516.53 65.06L506.57 78.91H506.56Z" fill="#047E80"/>
<path d="M540.83 88.17C540.63 97.81 530.35 101.79 521.48 97.5C520.43 96.99 519.49 95.53 519.24 94.72C518.88 93.57 519.39 91.52 519.98 90.77C525.54 95.36 533.72 94.39 534.27 90.13C534.47 88.55 533.6 86.68 532.21 85.95L522.52 80.88C520.12 79.62 519.12 76.41 519.24 73.18C519.68 61.13 540.26 62.43 539.75 68.78C539.62 70.43 538.64 72.35 537.34 71.54C532.25 68.39 527.39 68.16 526.54 71.36C526.19 72.67 526.53 74.47 527.64 75.09L536.68 80.08C539.18 81.46 540.9 85.07 540.83 88.16V88.17Z" fill="#047E80"/>
<path d="M338.15 111.25C336.46 111.12 335.12 111.16 334.42 109.58C333.92 108.44 333.51 105.29 335.47 105.41C336.72 105.49 340.39 105.92 340.41 103.24L340.72 64.81L347.88 64.69L347.72 100.61C347.69 107.71 343.57 111.68 338.15 111.26V111.25Z" fill="#85152F"/>
<path d="M345.02 58.3C347.323 58.3 349.19 55.8331 349.19 52.79C349.19 49.7469 347.323 47.28 345.02 47.28C342.717 47.28 340.85 49.7469 340.85 52.79C340.85 55.8331 342.717 58.3 345.02 58.3Z" fill="#85152F"/>
<path d="M403.01 100.57C401.62 101.82 399.75 101.58 398.11 100.87C397.91 88.93 397.7 76.99 397.5 65.04C397.58 63.84 397.67 62.02 397.63 59.81C397.57 56.66 397.18 55.02 397.92 54.22C398.2 53.92 398.9 53.9 400.28 53.86C401.5 53.83 402.11 53.82 402.45 54.15C403.2 54.89 403.05 56.62 402.96 57.98C402.79 60.84 403.09 63.73 403 66.6C402.91 69.34 403.07 68.63 403.19 75.91C403.21 77.28 403.32 83.79 403.19 92.27C403.14 95.65 403.07 98.5 403.01 100.58V100.57Z" fill="#85152F"/>
<path d="M272.24 89.93C272.29 93.96 275.96 93.92 278.06 93.14C279.31 92.68 279.77 95.28 279.55 96.25C279.15 98.02 278.09 98.48 276.35 98.85C271.3 99.93 264.96 97.14 264.86 89.81L264.6 70.43C263.15 70.74 261.69 70.67 261.25 69.96C260.81 69.25 260.71 66.95 260.88 66.06C261.13 64.75 262.77 64.01 264.59 64.91L264.74 53.22L271.75 53.1L271.98 64.48L278.59 64.73C278.88 66.07 278.92 69.1 277.91 69.89L271.98 70.67L272.24 89.91V89.93Z" fill="#85152F"/>
<path d="M260.05 89.17C259.66 101.83 239.42 100.74 238.67 95C238.53 93.95 238.59 92.88 239.54 91.44C245.31 95.74 253.49 94.28 253.61 90.15C253.65 88.67 252.95 86.86 251.63 86.22L243.39 82.21C240.61 80.86 238.73 77.74 238.76 74.15C238.84 64.66 247.84 62.43 256.91 65.19C258.34 65.63 258.83 67.15 259.08 68.13C259.33 69.11 258.24 72.04 257.41 71.51C253.41 68.97 248.12 67.18 244.76 71.91C245.88 79.68 260.42 76.38 260.03 89.15L260.05 89.17Z" fill="#85152F"/>
<path d="M171.67 98.11C170.19 99.02 168.53 98.31 166.4 98.58C165.67 98.84 164.96 98.58 164.96 97.74C165.38 81.35 165.51 64.87 165.35 48.3C165.95 47.04 186.8 47.71 187.85 48.23C188.34 48.47 188.28 52.31 188 53.08L172.11 53.18C172.9 53.6 172.55 53.89 171.42 54.09V70.26C171.74 69.21 171.96 69.67 172.11 71.17C176.54 71.07 180.95 71.15 185.34 71.4C185.55 73.07 185.46 74.66 185.08 76.17L171.46 76.2C171.21 83.52 171.28 90.82 171.68 98.12H171.67V98.11Z" fill="#85152F"/>
<path d="M220.56 98.19C220.4 86.93 220.58 75.76 221.1 64.7L227.02 64.77L227.45 69.69C230.08 65.22 233.58 62.99 237.32 65.1C237.37 67.58 237.36 69.86 236.28 71.94C232.58 69.92 227.67 71.82 227.57 77.04L227.12 98.58C224.6 98.6 222.37 98.75 220.56 98.2V98.19Z" fill="#85152F"/>
<path d="M171.67 98.11C170.2 90.77 171.41 83.38 170.99 75.7L184.58 75.66V71.67H171.02V52.67H187.59C187.76 51.18 187.76 50.15 187.58 48.66L165.72 48.68L165.64 92.74C165.64 94.95 165.87 96.28 167.38 97.33C166.22 98.07 165.56 97.67 164.95 97.74V47.67L189.13 47.82C188.32 50.02 188.41 51.57 188.38 53.68H171.78V70.67H186.07C186.29 72.86 186.29 74.5 186.07 76.68L171.78 76.7L171.67 98.12V98.11Z" fill="#85152F"/>
<path d="M220.56 98.19L220.29 65.74C220.29 65.04 220.75 64.62 221.1 64.7L220.56 98.19Z" fill="#85152F"/>
<path d="M198.03 98.05C194.67 96.72 195.25 102.31 193.7 103C192.56 103.51 191.19 103.58 189.94 102.56L192.59 95.27C188.57 89.43 186.56 80.98 189.05 73.37C193.17 60.78 205.23 65.13 206.72 64.42C207.91 63.85 208.03 59.43 210.19 57.7C211.41 56.72 213.78 57.5 213.37 59.65C213.08 61.18 210.46 64.01 211.67 66.01C216.44 73.86 218.18 84.91 213.1 93.28C209.55 99.13 203.22 100.11 198.02 98.06H198.03V98.05Z" fill="#85152F"/>
<path d="M207.95 72.3C209.48 81.08 209.79 90.6 205.73 93.08C203.41 94.5 200.63 94.36 198.92 91.95C202.48 85.16 205.3 79.18 207.95 72.3Z" fill="white"/>
<path d="M196.57 88.55C193.68 84.45 194.09 77.6 196.36 73.12C198.09 69.71 201.32 68.4 204.79 69.64L196.57 88.55Z" fill="white"/>
<path d="M551.27 110.66C548.98 111.11 546.51 111.44 543.75 110.8L543.71 68.58C543.71 66.81 543.75 65.55 544.66 64.69L551.26 64.91C551.11 66.56 550.69 67.58 551.41 69.42C554.58 64.25 558.25 63.42 563.1 64.41C569.93 65.81 574.79 82.1 568.41 93.26C564.43 100.22 556.44 101.16 551.31 95.82L551.28 110.65H551.27V110.66Z" fill="#047E80"/>
<path d="M563.31 87.67C562.13 92.03 559.71 93.76 557.08 93.8C554.67 93.83 551.68 91.98 551.25 88.03C550.82 84.08 550.62 79.31 551.3 75.42C551.92 71.84 554.97 69.58 557.08 69.52C559.75 69.44 562.13 71.49 563.17 75.25C564.21 79.01 564.37 83.71 563.31 87.66V87.67Z" fill="white"/>
<path d="M463.5 87.57C463.47 87.45 463.44 87.35 463.42 87.26C463.4 87.16 463.39 87.12 463.37 87.01C463.34 86.89 463.32 86.79 463.3 86.7C463.13 85 463.01 82.58 463.24 79.72C463.4 77.81 463.58 74.8 464.61 72.33C466.68 67.33 470.89 64.33 475.61 64.15C480 63.98 483.7 64.4 486.48 68.87C488.65 72.37 489.63 77.2 488.95 82.28H470.31C469.77 89.36 473.83 93.73 478.67 93.73C481.82 93.73 484.27 92.93 486.73 90.34L488.02 93.87C486.13 97.42 482.09 98.88 478.74 99.16C477.69 99.25 475.17 99.38 472.26 97.96C466.84 95.32 464.24 89.39 463.5 87.55V87.57Z" fill="#047E80"/>
<path d="M482.97 77.76L470.5 77.89C470.05 72.48 472.87 69.49 476 69.28C479.67 69.04 482.79 71.12 482.97 77.76Z" fill="white"/>
<path d="M633.42 87.15C633.37 92.12 636.28 93.86 639.39 93.57C640.66 93.45 641.08 97.85 639.93 98.27C637.31 99.24 634.43 99.23 631.78 98.65C628.65 97.97 626.89 94.12 626.81 90.3L626.4 70.77C625.32 70.56 623.08 70.91 622.74 69.91C622.4 68.91 622.17 66.11 622.65 65.21C623.16 64.23 625.21 64.33 626.48 64.65L626.73 53.19L633.46 53.17L633.43 64.61L640.77 64.63L640.44 70.24L633.6 70.5L633.44 87.15H633.42Z" fill="#047E80"/>
<path d="M619.84 72.4C615.46 70.27 609.69 72.05 609.59 78.07L609.24 98.06L602.71 98.35L602.43 65.18L609.05 64.84C609.12 66.62 608.7 68 609.36 70.19C612.34 65.12 615.83 63 620.49 64.75C620.69 67.09 621 69.21 619.85 72.4H619.84Z" fill="#047E80"/>
<path d="M588.87 93.88C592.06 93.68 594.05 92.56 596.25 90.72C596.83 90.42 597.91 92.44 597.84 93.23C597.32 99.12 581.35 103.99 574.87 90.61C572 84.68 572.67 74.97 576.4 69.64C581.31 62.63 590.45 61.96 595.84 67.95C598.97 71.43 599.54 77.7 599.2 82.14L580.24 82.51C579.75 89.15 583.7 94.21 588.88 93.88H588.87Z" fill="#047E80"/>
<path d="M592.42 77.77L580.6 77.98C580.08 74.1 581.98 69.38 585.42 69.31C587.28 69.27 589.06 68.96 590.44 70.58C591.42 71.74 592.55 73.73 592.41 77.78H592.42V77.77Z" fill="white"/>
<path d="M330.33 65.24C331.29 66.15 332.09 67.24 332.75 68.52C334.33 71.61 335 95.53 334.2 97.01C332.31 97.5 330.44 97.84 328.6 98.03C328.14 97.55 327.86 96.85 327.86 95.74L327.84 74.7C327.84 71.05 325.37 68.47 322.56 69.44C320.4 70.18 317.52 72.61 317.46 75.8L317.04 98.11L311.3 98.67C310.97 98.01 310.72 97.49 310.77 97.43C313.2 94.68 312.67 99.07 310.65 97.47C310.39 81.03 310.41 64.63 310.7 48.28C312.72 48.36 314.66 48.11 316.53 47.54C316.95 47.41 317.27 47.82 317.29 48.58L317.59 69.1C321.46 63.77 326.25 62.92 330.33 65.25V65.24Z" fill="#85152F"/>
<path d="M309.66 47.73L316.53 47.54L316.61 69.14C316.38 69.52 316.11 69.68 315.93 69.71L315.76 48.82C314.14 48.51 312.83 48.49 311.21 48.84L311.04 96.73C312.79 96.77 314.05 96.02 315.17 97.53C313.47 97.64 311.92 97.15 311.29 98.66C311.05 98.68 310.15 98.57 310.14 98.02" fill="#85152F"/>
<path d="M328.59 98.04L329.02 73.59L329.52 95.94C329.55 97.38 333.5 97.34 333.55 95.86C332.47 83.81 336.85 74.98 330.32 65.24C332.73 66.61 334.59 69.7 334.64 73.75L334.97 98.05C332.72 98.62 330.54 98.58 328.58 98.04H328.59Z" fill="#85152F"/>
<path d="M297.13 93.85C302.26 93.39 303.64 90.2 305.04 91.34C305.7 91.88 306.34 93.42 305.76 94.3C303.22 98.11 299.75 98.92 296.08 99.15C289.03 99.59 282.75 94.36 281.36 85.58C280.04 77.25 282.64 67.89 289.52 64.97C292.92 63.53 297.47 63.65 300.77 65.48C305.75 68.25 307.39 75.96 306.67 82.38L288.03 82.31C287.69 88.78 291.57 94.34 297.14 93.84H297.13V93.85Z" fill="#85152F"/>
<path d="M300.25 77.91L288.11 77.86C287.81 72.83 290.5 69.03 294.15 69.08C297.8 69.13 300.45 72.7 300.25 77.91Z" fill="white"/>
<path d="M688.277 97.5161L688.137 72.8661C688.127 70.6361 686.347 69.3761 685.357 68.8161C683.767 67.9061 681.627 68.6061 680.277 69.9261C678.197 71.9661 677.387 74.2461 677.367 77.7161L677.227 97.5761L670.287 97.1761L670.067 63.6661L676.977 63.8161C677.267 65.4161 677.147 66.2861 678.007 68.2361C679.907 63.6761 682.657 63.4661 686.077 63.1061C691.107 62.5861 695.297 66.6361 695.297 73.6961L695.267 97.5261L688.267 97.5061H688.277V97.5161Z" fill="#047E80"/>
<path d="M652.967 91.9061C659.927 95.3161 667.467 86.4561 665.887 92.2261C664.967 95.5961 660.827 97.7361 656.547 98.1861C649.277 98.9661 643.057 93.9361 641.407 84.9961C639.827 76.4361 642.887 66.6961 649.857 63.9461C652.697 62.8261 656.597 62.5961 659.537 63.8261C664.777 66.0161 667.857 74.0261 666.697 81.0961L648.547 81.2361C647.467 85.2861 649.357 90.1361 652.967 91.9061Z" fill="#047E80"/>
<path d="M660.477 76.6261L648.567 77.3261C647.447 72.3561 649.997 68.8461 653.127 68.3361C656.757 67.7461 660.207 70.2161 660.477 76.6261Z" fill="white"/>
<path d="M456.96 96.68C449.14 102.24 434.92 97.47 440.39 91.25C446.68 95.04 453.77 94.99 454.18 90.03C454.32 88.34 453.42 86.63 451.98 85.9L443.8 81.78C441.22 80.48 439.27 77.49 439.23 74.13C439.11 64.49 448.44 62.45 457.74 65.18C459.24 65.62 459.92 67.53 459.65 68.92C459.41 70.12 458.42 72.09 457.07 71.24C450.96 67.43 445.39 69.45 445.62 73.17C445.66 73.85 446.4 74.93 447.16 75.31L456.48 79.93C459.02 81.19 460.84 84.19 461.04 87.31C461.26 90.81 459.92 94.58 456.97 96.67L456.96 96.68Z" fill="#85152F"/>
<path d="M416.17 110.61C413.57 111.61 411.35 111.4 408.91 110.77L408.95 64.76L415.96 64.48L416.66 69.35C419.68 62.88 428 62.85 431.37 66.15C437.88 72.53 438.46 85.74 433.18 93.43C428.78 99.83 422.01 101.02 416.26 95.88L416.16 110.6L416.17 110.61Z" fill="#85152F"/>
<path d="M427.46 90.42C425.89 93.72 423.28 94.28 420.93 93.51C419.27 92.96 416.91 90.93 416.47 87.7C415.28 79.12 415.8 72.45 421.05 69.75C423 68.75 425.82 69.17 427.23 71.77C429.99 76.87 430.15 84.79 427.46 90.42Z" fill="white"/>
<path d="M387.45 66.54C387.86 68.3 386.85 66.96 386.92 67.01C394.26 72.23 389.21 84.52 384.66 71.53L383.18 72.5C379.72 69.5 374.93 71.89 376.88 77.65C379.01 79.78 378.1 81.11 374.17 81.65C373.31 91.3 367.34 94.7 368.35 82.52L367.8 81.93C366.99 83.78 365.29 84.84 362.68 85.1C358.97 86.82 359.14 89.71 363.18 93.75C365.64 95.35 364.67 97.09 362.39 98.24C359.37 99.77 353.44 96.31 353.01 91.66C352.99 91.41 353.9 92.17 352.57 92.65C351.45 88.8 351.98 84.78 354.78 82.06C358.27 78.67 362.96 77.2 367.31 76.92C368.28 75.52 367.85 71.76 366.64 70.69C361.56 66.22 356.76 73.68 355.26 72.02C354.73 71.44 354.38 69.28 354.95 68.5C359.11 62.86 368.46 61.99 372.62 68.57C376.82 63.09 382.73 62.57 387.44 66.54H387.45Z" fill="#85152F"/>
<path d="M352.58 92.66C352.87 92.4 352.54 91.46 353.39 90.6C353.35 96.29 360.28 98.47 362.1 97.51C362.91 97.08 363.15 95.14 363.18 93.76C363.18 92.29 364.09 91.09 365.89 90.17C365.55 85.99 366.19 83.24 367.8 81.93C369.8 79.96 368.28 84.29 369.51 88.78C372.21 87.5 372.19 83.75 373.87 81.24C374.6 80.15 377.24 80.15 376.88 77.64L377.51 75.63L383.6 75.53C383.18 73.52 383.53 72.19 384.67 71.52C386.12 69.93 385.17 75.16 389.74 75.3C390.49 72.67 388.38 68.74 386.25 67.3C386.55 66.54 386.93 66.56 387.46 66.54C391.18 69.67 392.53 76.03 391.76 82.01C385.94 83.07 380.44 82.62 374.48 81.96C374.15 85.77 375.16 88.94 376.67 90.9C379.82 95.01 385.57 95.08 389.39 90.56C390.3 90.6 391.81 93.58 390.9 94.61C385.01 101.34 376.28 100.48 370.72 93.2C367.7 97.92 364.47 99.22 360.49 99.08C356.51 98.94 353.93 97.3 352.58 92.65V92.66Z" fill="#85152F"/>
<path d="M367.8 81.93L367.45 90.04C367.35 92.31 364.81 93.52 363.19 93.75C360.89 94.08 359.2 92.33 358.62 89.71C357.56 84.93 362.07 82.21 367.81 81.92H367.8V81.93Z" fill="white"/>
<path d="M384.66 71.53L385.6 77.5L376.87 77.64C376.23 77.65 375.06 77.73 374.87 77.01C374.65 76.18 374.85 74.62 375.02 73.88C375.77 70.57 377.53 69.19 379.76 69.22C381.53 69.25 383.28 69.81 384.65 71.52L384.66 71.53Z" fill="white"/>
<path d="M89.2631 124.054L88.9169 123.999L89.0035 117.346L88.7517 117.551C88.5 117.575 88.2325 117.504 88.2325 117.314C88.1539 102.338 88.1932 86.9985 88.2325 71.9753C88.2325 71.113 88.1775 70.2665 88.0044 69.42C88.028 69.1668 88.2011 69.0403 88.4528 68.9928L88.3269 66.9122L87.7369 66.5799C87.9808 59.365 88.0516 52.158 87.9336 44.9509L88.618 44.6661C92.3468 38.1869 100.127 30.9562 106.798 29.1445L110.653 28.1003C113.532 27.8155 116.403 27.6731 119.314 28.0449C126.079 28.9072 132.27 32.8469 136.644 38.63C145.179 49.9191 144.109 66.0736 136.967 78.0906L131.995 85.4242L124.592 93.7308C114.845 103.026 103.368 109.814 95.2181 117.923L92.1659 120.953L89.2709 124.054H89.2631Z" fill="#027D7F"/>
<path d="M88.4449 68.9928L88.7517 117.551C88.8933 117.607 88.9956 117.662 89.0035 117.717C89.0585 119.6 89.0507 122.061 88.9248 123.928C88.9248 124.007 88.7675 124.078 88.5708 124.141C88.6023 124.41 88.5944 124.655 88.5551 124.885C88.5315 125.027 88.2168 125.193 88.0673 124.996C86.7851 123.382 85.5107 121.76 84.2284 120.146C85.6444 121.412 86.8244 122.171 87.202 122.005C87.3593 121.942 87.4695 121.815 87.4695 121.815C87.6268 121.641 87.6976 121.364 87.6976 120.977L87.8235 96.7133C87.8392 93.9682 87.8392 91.5395 87.8235 88.7943L87.7763 75.5036C87.7763 73.4547 88.4056 71.4452 87.5324 69.3804L67.2128 69.2934C65.9305 69.2934 65.3248 70.045 64.7033 71.0734L65.3169 68.7871C69.3368 69.1827 73.4117 68.8425 77.4631 68.882L88.4449 68.977V68.9928Z" fill="#85092D"/>
<path d="M89.2631 124.054C89.1451 124.197 89.0271 124.339 88.9012 124.481C88.736 124.671 88.5787 124.853 88.4213 125.027C88.5315 122.535 88.6416 120.043 88.7439 117.543L88.9169 69.1431C88.9169 69.0482 89.0585 68.9137 89.1765 68.9374L89.2631 124.046V124.054Z" fill="#027D7F"/>
<path d="M127.188 68.5498L119.841 68.6051L119.857 60.6782L112.226 60.607C112.202 59.1197 112.179 57.6087 112.171 56.0898C112.163 54.5787 112.163 53.0835 112.171 51.6042H119.817L119.872 43.0206L127.173 43.0997L127.188 51.5567L134.866 51.5963V60.607L127.212 60.6703L127.196 68.5419L127.188 68.5498Z" fill="white"/>
<path d="M89.1923 44.682H88.8383V66.928H89.1923V44.682Z" fill="#027D7F"/>
<path d="M84.6768 120.637C84.5195 120.637 84.4329 120.383 84.3779 120.273C83.2765 119.521 82.4505 118.192 82.0572 116.815C80.2951 116.452 78.8319 115.004 77.8328 113.35C74.5681 111.064 71.4765 108.469 68.558 105.558C67.4173 104.901 66.3947 104.15 65.4979 103.311C65.4821 102.077 65.0809 101.223 64.2864 100.748C64.0661 99.949 63.5076 99.6721 62.6108 99.9173C61.6589 99.2845 61.6511 98.2006 62.5872 96.658L62.776 94.4903C60.7307 95.6216 59.5979 94.4112 60.2193 91.9429L62.1231 87.6788C62.7131 87.1884 62.7839 86.7058 62.3276 86.2311C59.8496 87.3703 56.5771 87.1251 57.5447 83.1695C58.0324 81.1759 58.9607 81.4449 59.708 83.0904C61.5252 84.3878 62.6187 83.217 62.9884 79.5858C63.9953 77.2678 64.4831 74.7521 64.4437 72.0544L64.7112 71.0734C64.9551 70.3377 65.2933 69.7206 65.7417 69.2222C73.1285 69.0798 80.6648 68.9928 88.0437 69.3013C88.3033 86.4922 88.264 104.023 88.1696 121.317C87.8628 123.129 86.7064 122.899 84.6847 120.629L84.6768 120.637Z" fill="#85092D"/>
<path d="M57.2614 63.1861C57.7413 64.5705 57.6705 66.2872 57.8672 67.9723L59.5349 82.0936C59.6372 82.948 60.4868 83.3752 60.9666 83.2882C62.5793 82.9717 63.4053 75.8755 64.4358 72.0781C65.2068 72.624 64.247 74.0876 64.6168 76.5717C64.8213 77.9403 63.5784 78.7314 63.1693 79.7045C62.6973 80.8278 63.1772 82.4101 62.4298 83.4227C61.6196 84.5144 59.9754 84.285 59.3304 83.0904C59.118 82.6949 58.4021 82.2835 58.2605 82.5604C57.9773 83.7549 58.1346 84.9021 58.292 85.9463C59.8024 86.4131 61.179 85.9701 62.5164 85.4163C62.9254 85.978 63.2008 86.5001 63.248 86.9431C63.2952 87.3782 62.7681 87.7263 62.6186 88.0586L60.6913 92.4018C60.4002 93.0584 60.5654 93.9445 61.1082 94.2055C62.4141 94.8147 62.9097 92.5125 63.9481 92.2515C64.1841 92.2277 64.3257 93.1375 64.129 93.3432L63.3974 94.1501L63.185 96.6501C63.1064 97.5677 62.1781 98.2718 62.4928 99.3319L64.3808 99.1025C64.3493 100.194 64.8764 100.677 65.6473 100.859L66.1114 103.414C68.4164 104.245 69.9582 105.969 71.7046 107.662C72.5385 108.469 73.4904 108.96 74.2141 109.98C75.992 112.512 78.1317 111.879 78.7453 113.698C79.7208 116.594 82.6393 115.637 82.7337 116.697C82.8596 118.247 83.5518 119.355 84.3778 120.296C83.5125 119.584 83.072 119.22 82.3325 118.516C69.8796 106.602 52.0537 95.5979 43.2981 82.505L41.8585 80.3453C40.828 78.7709 39.7266 76.9118 38.6725 74.7442C37.5554 72.4658 36.7137 70.314 36.0765 68.3995C36.7137 68.3837 37.3509 68.3678 37.9881 68.352C41.2764 68.3125 44.5646 68.2729 47.845 68.2333C48.4822 67.4897 48.0889 66.1211 48.671 65.9391C49.2768 65.7493 49.7488 69.9817 51.2277 72.7189C51.9514 73.1461 53.1708 73.2094 53.5326 72.2601L55.3656 62.1972C55.5229 60.702 56.0185 59.99 56.8445 60.0691L57.2614 63.194V63.1861Z" fill="#85092D"/>
<path d="M57.2614 63.186C56.6793 61.5089 57.1356 60.5042 56.5062 60.6624C55.2476 60.9788 55.4285 63.6686 55.0116 65.7572C54.6418 67.6163 54.1934 69.2855 54.0833 71.1921C54.0361 72.0465 53.6506 72.8613 53.1157 73.0196C52.4864 73.2015 51.5581 73.336 51.2198 72.711C51.6053 72.7822 53.1078 73.0433 53.2494 72.3313L54.5632 65.5752L56.5062 55.4885C56.994 58.0201 57.3165 60.5675 57.2614 63.194V63.186Z" fill="#85092D"/>
<path d="M88.6022 44.6741C88.1932 46.2246 88.6022 48.3844 88.6022 50.1406L88.5079 62.1339L88.319 66.9122H66.906C66.3081 65.3774 66.6385 63.6053 65.5372 63.4392C65.2382 63.3917 64.5224 63.5816 64.3965 64.1037L62.3118 72.9642L61.2813 77.7029L60.652 74.0085L57.757 46.8812C57.6862 46.193 57.2615 45.7262 56.8209 45.7341C56.3804 45.7421 55.8848 46.1613 55.7747 46.8021L53.8395 57.8381L52.8325 64.9344C52.6359 66.3347 52.683 67.6875 51.9436 68.795C51.0546 65.2983 50.5984 61.3507 48.1282 61.8412C46.4684 62.1655 46.8145 64.4597 46.0908 65.8758L35.337 65.9233C33.4962 58.6213 34.2279 49.8796 37.4217 43.3687C42.5036 33.021 52.2661 27.1035 62.6737 27.8629C64.9157 28.0291 66.8431 27.9895 69.0693 28.5987C74.1119 29.9673 78.7768 32.7836 82.4977 36.8974C84.7791 39.4211 86.8795 41.8419 88.618 44.6978L88.6022 44.6741Z" fill="#85092D"/>
<path d="M62.3197 69.7918C62.1231 70.6462 62.6423 71.9753 61.2341 72.6082C60.7071 70.931 60.2193 68.8583 60.7779 67.015C60.9588 66.4692 61.9657 67.0704 62.2253 67.553C62.6029 68.265 62.5872 68.6289 62.3197 69.7918Z" fill="#85092D"/>
</svg>
