<?xml version="1.0" encoding="UTF-8"?>
<svg id="Layer_1" xmlns="http://www.w3.org/2000/svg" version="1.1" viewBox="0 0 225 225">
  <!-- Generator: Adobe Illustrator 30.4.0, SVG Export Plug-In . SVG Version: 2.1.4 Build 226)  -->
  <defs>
    <style>
      .st0 {
        fill: #fff;
      }

      .st1 {
        fill: #027d7f;
      }

      .st2 {
        fill: #85092d;
      }
    </style>
  </defs>
  <g>
    <path class="st1" d="M113.47,156.81l-.44-.07.11-8.41-.32.26c-.32.03-.66-.06-.66-.3-.1-18.93-.05-38.32,0-57.31,0-1.09-.07-2.16-.29-3.23.03-.32.25-.48.57-.54l-.16-2.63-.75-.42c.31-9.12.4-18.23.25-27.34l.87-.36c4.74-8.19,14.63-17.33,23.11-19.62l4.9-1.32c3.66-.36,7.31-.54,11.01-.07,8.6,1.09,16.47,6.07,22.03,13.38,10.85,14.27,9.49,34.69.41,49.88l-6.32,9.27-9.41,10.5c-12.39,11.75-26.98,20.33-37.34,30.58l-3.88,3.83-3.68,3.92h0Z"/>
    <path class="st2" d="M112.43,87.21l.39,61.38c.18.07.31.14.32.21.07,2.38.06,5.49-.1,7.85,0,.1-.2.19-.45.27.04.34.03.65-.02.94-.03.18-.43.39-.62.14-1.63-2.04-3.25-4.09-4.88-6.13,1.8,1.6,3.3,2.56,3.78,2.35.2-.08.34-.24.34-.24.2-.22.29-.57.29-1.06l.16-30.67c.02-3.47.02-6.54,0-10.01l-.06-16.8c0-2.59.8-5.13-.31-7.74l-25.83-.11c-1.63,0-2.4.95-3.19,2.25l.78-2.89c5.11.5,10.29.07,15.44.12l13.96.12h0Z"/>
    <path class="st1" d="M113.47,156.81c-.15.18-.3.36-.46.54-.21.24-.41.47-.61.69.14-3.15.28-6.3.41-9.46l.22-61.18c0-.12.18-.29.33-.26l.11,69.66h0Z"/>
    <path class="st0" d="M161.68,86.65l-9.34.07.02-10.02-9.7-.09c-.03-1.88-.06-3.79-.07-5.71-.01-1.91-.01-3.8,0-5.67h9.72s.07-10.85.07-10.85l9.28.1.02,10.69,9.76.05v11.39s-9.73.08-9.73.08l-.02,9.95h0Z"/>
    <rect class="st1" x="112.93" y="56.48" width=".45" height="28.12"/>
  </g>
  <g>
    <path class="st2" d="M107.64,152.49c-.2,0-.31-.32-.38-.46-1.4-.95-2.45-2.63-2.95-4.37-2.24-.46-4.1-2.29-5.37-4.38-4.15-2.89-8.08-6.17-11.79-9.85-1.45-.83-2.75-1.78-3.89-2.84-.02-1.56-.53-2.64-1.54-3.24-.28-1.01-.99-1.36-2.13-1.05-1.21-.8-1.22-2.17-.03-4.12l.24-2.74c-2.6,1.43-4.04-.1-3.25-3.22l2.42-5.39c.75-.62.84-1.23.26-1.83-3.15,1.44-7.31,1.13-6.08-3.87.62-2.52,1.8-2.18,2.75-.1,2.31,1.64,3.7.16,4.17-4.43,1.28-2.93,1.9-6.11,1.85-9.52l.34-1.24c.31-.93.74-1.71,1.31-2.34,9.39-.18,18.97-.29,28.35.1.33,21.73.28,43.89.16,65.75-.39,2.29-1.86,2-4.43-.87h0Z"/>
    <path class="st2" d="M72.79,79.87c.61,1.75.52,3.92.77,6.05l2.12,17.85c.13,1.08,1.21,1.62,1.82,1.51,2.05-.4,3.1-9.37,4.41-14.17.98.69-.24,2.54.23,5.68.26,1.73-1.32,2.73-1.84,3.96-.6,1.42.01,3.42-.94,4.7-1.03,1.38-3.12,1.09-3.94-.42-.27-.5-1.18-1.02-1.36-.67-.36,1.51-.16,2.96.04,4.28,1.92.59,3.67.03,5.37-.67.52.71.87,1.37.93,1.93.06.55-.61.99-.8,1.41l-2.45,5.49c-.37.83-.16,1.95.53,2.28,1.66.77,2.29-2.14,3.61-2.47.3-.03.48,1.12.23,1.38l-.93,1.02-.27,3.16c-.1,1.16-1.28,2.05-.88,3.39l2.4-.29c-.04,1.38.63,1.99,1.61,2.22l.59,3.23c2.93,1.05,4.89,3.23,7.11,5.37,1.06,1.02,2.27,1.64,3.19,2.93,2.26,3.2,4.98,2.4,5.76,4.7,1.24,3.66,4.95,2.45,5.07,3.79.16,1.96,1.04,3.36,2.09,4.55-1.1-.9-1.66-1.36-2.6-2.25-15.83-15.06-38.49-28.97-49.62-45.52l-1.83-2.73c-1.31-1.99-2.71-4.34-4.05-7.08-1.42-2.88-2.49-5.6-3.3-8.02.81-.02,1.62-.04,2.43-.06,4.18-.05,8.36-.1,12.53-.15.81-.94.31-2.67,1.05-2.9.77-.24,1.37,5.11,3.25,8.57.92.54,2.47.62,2.93-.58l2.33-12.72c.2-1.89.83-2.79,1.88-2.69l.53,3.95h0Z"/>
    <path class="st2" d="M72.79,79.87c-.74-2.12-.16-3.39-.96-3.19-1.6.4-1.37,3.8-1.9,6.44-.47,2.35-1.04,4.46-1.18,6.87-.06,1.08-.55,2.11-1.23,2.31-.8.23-1.98.4-2.41-.39.49.09,2.4.42,2.58-.48l1.67-8.54,2.47-12.75c.62,3.2,1.03,6.42.96,9.74h0Z"/>
    <g>
      <path class="st2" d="M112.63,56.47c-.52,1.96,0,4.69,0,6.91l-.12,15.16-.24,6.04h-27.22c-.76-1.94-.34-4.18-1.74-4.39-.38-.06-1.29.18-1.45.84l-2.65,11.2-1.31,5.99-.8-4.67-3.68-34.29c-.09-.87-.63-1.46-1.19-1.45s-1.19.54-1.33,1.35l-2.46,13.95-1.28,8.97c-.25,1.77-.19,3.48-1.13,4.88-1.13-4.42-1.71-9.41-4.85-8.79-2.11.41-1.67,3.31-2.59,5.1l-13.67.06c-2.34-9.23-1.41-20.28,2.65-28.51,6.46-13.08,18.87-20.56,32.1-19.6,2.85.21,5.3.16,8.13.93,6.41,1.73,12.34,5.29,17.07,10.49,2.9,3.19,5.57,6.25,7.78,9.86h0Z"/>
      <path class="st2" d="M79.22,88.22c-.25,1.08.41,2.76-1.38,3.56-.67-2.12-1.29-4.74-.58-7.07.23-.69,1.51.07,1.84.68.48.9.46,1.36.12,2.83h0Z"/>
    </g>
  </g>
</svg>