<?xml version="1.0" encoding="UTF-8"?>
<svg id="Layer_1" xmlns="http://www.w3.org/2000/svg" version="1.1" viewBox="0 0 850.39 566.93">
  <!-- Generator: Adobe Illustrator 30.4.0, SVG Export Plug-In . SVG Version: 2.1.4 Build 226)  -->
  <defs>
    <style>
      .st0 {
        fill: #047e80;
      }

      .st1 {
        fill: #fff;
      }

      .st2 {
        fill: #85152f;
      }
    </style>
  </defs>
  <g>
    <path class="st0" d="M500.56,282.91l12.23,19.65-8.19-.04-10.16-16.44-.21,16.28-6.98.15-.15-51.02c2.44-.54,4.33-.38,7.24.02l-.14,29.86,9.9-12.24c1.35-1.67,4.55-.34,6.43-.07l-9.96,13.85h0Z"/>
    <path class="st0" d="M534.83,292.17c-.2,9.64-10.48,13.62-19.35,9.33-1.05-.51-1.99-1.97-2.24-2.78-.36-1.15.15-3.2.74-3.95,5.56,4.59,13.74,3.62,14.29-.64.2-1.58-.67-3.45-2.06-4.18l-9.69-5.07c-2.4-1.26-3.4-4.47-3.28-7.7.44-12.05,21.02-10.75,20.51-4.4-.13,1.65-1.11,3.57-2.41,2.76-5.09-3.15-9.95-3.38-10.8-.18-.35,1.31-.01,3.11,1.1,3.73l9.04,4.99c2.5,1.38,4.22,4.99,4.15,8.08h0Z"/>
  </g>
  <path class="st2" d="M332.15,315.25c-1.69-.13-3.03-.09-3.73-1.67-.5-1.14-.91-4.29,1.05-4.17,1.25.08,4.92.51,4.94-2.17l.31-38.43,7.16-.12-.16,35.92c-.03,7.1-4.15,11.07-9.57,10.65h0Z"/>
  <ellipse class="st2" cx="339.02" cy="256.79" rx="4.17" ry="5.51"/>
  <path class="st2" d="M397.01,304.57c-1.39,1.25-3.26,1.01-4.9.3-.2-11.94-.41-23.88-.61-35.83.08-1.2.17-3.02.13-5.23-.06-3.15-.45-4.79.29-5.59.28-.3.98-.32,2.36-.36,1.22-.03,1.83-.04,2.17.29.75.74.6,2.47.51,3.83-.17,2.86.13,5.75.04,8.62-.09,2.74.07,2.03.19,9.31.02,1.37.13,7.88,0,16.36-.05,3.38-.12,6.23-.18,8.31h0Z"/>
  <g>
    <path class="st2" d="M266.24,293.93c.05,4.03,3.72,3.99,5.82,3.21,1.25-.46,1.71,2.14,1.49,3.11-.4,1.77-1.46,2.23-3.2,2.6-5.05,1.08-11.39-1.71-11.49-9.04l-.26-19.38c-1.45.31-2.91.24-3.35-.47s-.54-3.01-.37-3.9c.25-1.31,1.89-2.05,3.71-1.15l.15-11.69,7.01-.12.23,11.38,6.61.25c.29,1.34.33,4.37-.68,5.16l-5.93.78.26,19.24v.02h0Z"/>
    <path class="st2" d="M254.05,293.17c-.39,12.66-20.63,11.57-21.38,5.83-.14-1.05-.08-2.12.87-3.56,5.77,4.3,13.95,2.84,14.07-1.29.04-1.48-.66-3.29-1.98-3.93l-8.24-4.01c-2.78-1.35-4.66-4.47-4.63-8.06.08-9.49,9.08-11.72,18.15-8.96,1.43.44,1.92,1.96,2.17,2.94s-.84,3.91-1.67,3.38c-4-2.54-9.29-4.33-12.65.4,1.12,7.77,15.66,4.47,15.27,17.24l.02.02h0Z"/>
    <path class="st2" d="M165.67,302.11c-1.48.91-3.14.2-5.27.47-.73.26-1.44,0-1.44-.84.42-16.39.55-32.87.39-49.44.6-1.26,21.45-.59,22.5-.07.49.24.43,4.08.15,4.85l-15.89.1c.79.42.44.71-.69.91v16.17c.32-1.05.54-.59.69.91,4.43-.1,8.84-.02,13.23.23.21,1.67.12,3.26-.26,4.77l-13.62.03c-.25,7.32-.18,14.62.22,21.92h-.01Z"/>
    <path class="st2" d="M214.56,302.19c-.16-11.26.02-22.43.54-33.49l5.92.07.43,4.92c2.63-4.47,6.13-6.7,9.87-4.59.05,2.48.04,4.76-1.04,6.84-3.7-2.02-8.61-.12-8.71,5.1l-.45,21.54c-2.52.02-4.75.17-6.56-.38h0Z"/>
    <path class="st2" d="M165.67,302.11c-1.47-7.34-.26-14.73-.68-22.41l13.59-.04v-3.99h-13.56v-19h16.57c.17-1.49.17-2.52-.01-4.01l-21.86.02-.08,44.06c0,2.21.23,3.54,1.74,4.59-1.16.74-1.82.34-2.43.41v-50.07l24.18.15c-.81,2.2-.72,3.75-.75,5.86h-16.6v16.99h14.29c.22,2.19.22,3.83,0,6.01l-14.29.02-.11,21.42h0Z"/>
    <path class="st2" d="M214.56,302.19l-.27-32.45c0-.7.46-1.12.81-1.04l-.54,33.49h0Z"/>
    <g>
      <path class="st2" d="M192.03,302.05c-3.36-1.33-2.78,4.26-4.33,4.95-1.14.51-2.51.58-3.76-.44l2.65-7.29c-4.02-5.84-6.03-14.29-3.54-21.9,4.12-12.59,16.18-8.24,17.67-8.95,1.19-.57,1.31-4.99,3.47-6.72,1.22-.98,3.59-.2,3.18,1.95-.29,1.53-2.91,4.36-1.7,6.36,4.77,7.85,6.51,18.9,1.43,27.27-3.55,5.85-9.88,6.83-15.08,4.78h.01Z"/>
      <path class="st1" d="M201.95,276.3c1.53,8.78,1.84,18.3-2.22,20.78-2.32,1.42-5.1,1.28-6.81-1.13,3.56-6.79,6.38-12.77,9.03-19.65Z"/>
      <path class="st1" d="M190.57,292.55c-2.89-4.1-2.48-10.95-.21-15.43,1.73-3.41,4.96-4.72,8.43-3.48l-8.22,18.91Z"/>
    </g>
  </g>
  <g>
    <path class="st0" d="M545.27,314.66c-2.29.45-4.76.78-7.52.14l-.04-42.22c0-1.77.04-3.03.95-3.89l6.6.22c-.15,1.65-.57,2.67.15,4.51,3.17-5.17,6.84-6,11.69-5.01,6.83,1.4,11.69,17.69,5.31,28.85-3.98,6.96-11.97,7.9-17.1,2.56l-.03,14.83h-.01Z"/>
    <path class="st1" d="M557.31,291.67c-1.18,4.36-3.6,6.09-6.23,6.13-2.41.03-5.4-1.82-5.83-5.77s-.63-8.72.05-12.61c.62-3.58,3.67-5.84,5.78-5.9,2.67-.08,5.05,1.97,6.09,5.73s1.2,8.46.14,12.41h0Z"/>
  </g>
  <g>
    <path class="st0" d="M457.5,291.57c-.03-.12-.06-.22-.08-.31-.02-.1-.03-.14-.05-.25-.03-.12-.05-.22-.07-.31-.17-1.7-.29-4.12-.06-6.98.16-1.91.34-4.92,1.37-7.39,2.07-5,6.28-8,11-8.18,4.39-.17,8.09.25,10.87,4.72,2.17,3.5,3.15,8.33,2.47,13.41h-18.64c-.54,7.08,3.52,11.45,8.36,11.45,3.15,0,5.6-.8,8.06-3.39l1.29,3.53c-1.89,3.55-5.93,5.01-9.28,5.29-1.05.09-3.57.22-6.48-1.2-5.42-2.64-8.02-8.57-8.76-10.41v.02h0Z"/>
    <path class="st1" d="M476.97,281.76l-12.47.13c-.45-5.41,2.37-8.4,5.5-8.61,3.67-.24,6.79,1.84,6.97,8.48h0Z"/>
  </g>
  <g>
    <path class="st0" d="M627.42,291.15c-.05,4.97,2.86,6.71,5.97,6.42,1.27-.12,1.69,4.28.54,4.7-2.62.97-5.5.96-8.15.38-3.13-.68-4.89-4.53-4.97-8.35l-.41-19.53c-1.08-.21-3.32.14-3.66-.86s-.57-3.8-.09-4.7c.51-.98,2.56-.88,3.83-.56l.25-11.46,6.73-.02-.03,11.44,7.34.02-.33,5.61-6.84.26-.16,16.65h-.02,0Z"/>
    <path class="st0" d="M613.84,276.4c-4.38-2.13-10.15-.35-10.25,5.67l-.35,19.99-6.53.29-.28-33.17,6.62-.34c.07,1.78-.35,3.16.31,5.35,2.98-5.07,6.47-7.19,11.13-5.44.2,2.34.51,4.46-.64,7.65h0Z"/>
    <g>
      <path class="st0" d="M582.87,297.88c3.19-.2,5.18-1.32,7.38-3.16.58-.3,1.66,1.72,1.59,2.51-.52,5.89-16.49,10.76-22.97-2.62-2.87-5.93-2.2-15.64,1.53-20.97,4.91-7.01,14.05-7.68,19.44-1.69,3.13,3.48,3.7,9.75,3.36,14.19l-18.96.37c-.49,6.64,3.46,11.7,8.64,11.37h-.01Z"/>
      <path class="st1" d="M586.42,281.77l-11.82.21c-.52-3.88,1.38-8.6,4.82-8.67,1.86-.04,3.64-.35,5.02,1.27.98,1.16,2.11,3.15,1.97,7.2h.01Z"/>
    </g>
  </g>
  <g>
    <path class="st2" d="M324.33,269.24c.96.91,1.76,2,2.42,3.28,1.58,3.09,2.25,27.01,1.45,28.49-1.89.49-3.76.83-5.6,1.02-.46-.48-.74-1.18-.74-2.29l-.02-21.04c0-3.65-2.47-6.23-5.28-5.26-2.16.74-5.04,3.17-5.1,6.36l-.42,22.31-5.74.56c-.33-.66-.58-1.18-.53-1.24,2.43-2.75,1.9,1.64-.12.04-.26-16.44-.24-32.84.05-49.19,2.02.08,3.96-.17,5.83-.74.42-.13.74.28.76,1.04l.3,20.52c3.87-5.33,8.66-6.18,12.74-3.85h0Z"/>
    <path class="st2" d="M303.66,251.73l6.87-.19.08,21.6c-.23.38-.5.54-.68.57l-.17-20.89c-1.62-.31-2.93-.33-4.55.02l-.17,47.89c1.75.04,3.01-.71,4.13.8-1.7.11-3.25-.38-3.88,1.13-.24.02-1.14-.09-1.15-.64"/>
    <path class="st2" d="M322.59,302.04l.43-24.45.5,22.35c.03,1.44,3.98,1.4,4.03-.08-1.08-12.05,3.3-20.88-3.23-30.62,2.41,1.37,4.27,4.46,4.32,8.51l.33,24.3c-2.25.57-4.43.53-6.39-.01h.01Z"/>
    <g>
      <path class="st2" d="M291.13,297.85c5.13-.46,6.51-3.65,7.91-2.51.66.54,1.3,2.08.72,2.96-2.54,3.81-6.01,4.62-9.68,4.85-7.05.44-13.33-4.79-14.72-13.57-1.32-8.33,1.28-17.69,8.16-20.61,3.4-1.44,7.95-1.32,11.25.51,4.98,2.77,6.62,10.48,5.9,16.9l-18.64-.07c-.34,6.47,3.54,12.03,9.11,11.53h-.01Z"/>
      <path class="st1" d="M294.25,281.91l-12.14-.05c-.3-5.03,2.39-8.83,6.04-8.78s6.3,3.62,6.1,8.83Z"/>
    </g>
  </g>
  <g>
    <path class="st0" d="M684.03,302.48l-.14-24.65c-.01-2.23-1.79-3.49-2.78-4.05-1.59-.91-3.73-.21-5.08,1.11-2.08,2.04-2.89,4.32-2.91,7.79l-.14,19.86-6.94-.4-.22-33.51,6.91.15c.29,1.6.17,2.47,1.03,4.42,1.9-4.56,4.65-4.77,8.07-5.13,5.03-.52,9.22,3.53,9.22,10.59l-.03,23.83-7-.02h.01Z"/>
    <g>
      <path class="st0" d="M648.72,296.87c6.96,3.41,14.5-5.45,12.92.32-.92,3.37-5.06,5.51-9.34,5.96-7.27.78-13.49-4.25-15.14-13.19-1.58-8.56,1.48-18.3,8.45-21.05,2.84-1.12,6.74-1.35,9.68-.12,5.24,2.19,8.32,10.2,7.16,17.27l-18.15.14c-1.08,4.05.81,8.9,4.42,10.67h0Z"/>
      <g>
        <path class="st1" d="M656.23,281.59l-11.91.7c-1.12-4.97,1.43-8.48,4.56-8.99,3.63-.59,7.08,1.88,7.35,8.29h0Z"/>
        <path class="st0" d="M646.45,277.95"/>
        <path class="st0" d="M653.51,277.82"/>
      </g>
    </g>
  </g>
  <g>
    <path class="st2" d="M450.96,300.68c-7.82,5.56-22.04.79-16.57-5.43,6.29,3.79,13.38,3.74,13.79-1.22.14-1.69-.76-3.4-2.2-4.13l-8.18-4.12c-2.58-1.3-4.53-4.29-4.57-7.65-.12-9.64,9.21-11.68,18.51-8.95,1.5.44,2.18,2.35,1.91,3.74-.24,1.2-1.23,3.17-2.58,2.32-6.11-3.81-11.68-1.79-11.45,1.93.04.68.78,1.76,1.54,2.14l9.32,4.62c2.54,1.26,4.36,4.26,4.56,7.38.22,3.5-1.12,7.27-4.07,9.36h0Z"/>
    <g>
      <path class="st2" d="M410.17,314.61c-2.6,1-4.82.79-7.26.16l.04-46.01,7.01-.28.7,4.87c3.02-6.47,11.34-6.5,14.71-3.2,6.51,6.38,7.09,19.59,1.81,27.28-4.4,6.4-11.17,7.59-16.92,2.45l-.1,14.72h0Z"/>
      <path class="st1" d="M421.46,294.42c-1.57,3.3-4.18,3.86-6.53,3.09-1.66-.55-4.02-2.58-4.46-5.81-1.19-8.58-.67-15.25,4.58-17.95,1.95-1,4.77-.58,6.18,2.02,2.76,5.1,2.92,13.02.23,18.65h0Z"/>
    </g>
  </g>
  <g>
    <path class="st2" d="M381.45,270.54c.41,1.76-.6.42-.53.47,7.34,5.22,2.29,17.51-2.26,4.52l-1.48.97c-3.46-3-8.25-.61-6.3,5.15,2.13,2.13,1.22,3.46-2.71,4-.86,9.65-6.83,13.05-5.82.87l-.55-.59c-.81,1.85-2.51,2.91-5.12,3.17-3.71,1.72-3.54,4.61.5,8.65,2.46,1.6,1.49,3.34-.79,4.49-3.02,1.53-8.95-1.93-9.38-6.58-.02-.25.89.51-.44.99-1.12-3.85-.59-7.87,2.21-10.59,3.49-3.39,8.18-4.86,12.53-5.14.97-1.4.54-5.16-.67-6.23-5.08-4.47-9.88,2.99-11.38,1.33-.53-.58-.88-2.74-.31-3.52,4.16-5.64,13.51-6.51,17.67.07,4.2-5.48,10.11-6,14.82-2.03h0Z"/>
    <path class="st2" d="M346.58,296.66c.29-.26-.04-1.2.81-2.06-.04,5.69,6.89,7.87,8.71,6.91.81-.43,1.05-2.37,1.08-3.75,0-1.47.91-2.67,2.71-3.59-.34-4.18.3-6.93,1.91-8.24,2-1.97.48,2.36,1.71,6.85,2.7-1.28,2.68-5.03,4.36-7.54.73-1.09,3.37-1.09,3.01-3.6l.63-2.01,6.09-.1c-.42-2.01-.07-3.34,1.07-4.01,1.45-1.59.5,3.64,5.07,3.78.75-2.63-1.36-6.56-3.49-8,.3-.76.68-.74,1.21-.76,3.72,3.13,5.07,9.49,4.3,15.47-5.82,1.06-11.32.61-17.28-.05-.33,3.81.68,6.98,2.19,8.94,3.15,4.11,8.9,4.18,12.72-.34.91.04,2.42,3.02,1.51,4.05-5.89,6.73-14.62,5.87-20.18-1.41-3.02,4.72-6.25,6.02-10.23,5.88s-6.56-1.78-7.91-6.43h0Z"/>
    <path class="st1" d="M361.8,285.93l-.35,8.11c-.1,2.27-2.64,3.48-4.26,3.71-2.3.33-3.99-1.42-4.57-4.04-1.06-4.78,3.45-7.5,9.19-7.79h-.01Z"/>
    <path class="st1" d="M378.66,275.53l.94,5.97-8.73.14c-.64.01-1.81.09-2-.63-.22-.83-.02-2.39.15-3.13.75-3.31,2.51-4.69,4.74-4.66,1.77.03,3.52.59,4.89,2.3h0Z"/>
  </g>
</svg>